<?xml version="1.0" standalone="no"?><!DOCTYPE svg PUBLIC "-//W3C//DTD SVG 1.1//EN" "http://www.w3.org/Graphics/SVG/1.1/DTD/svg11.dtd"><svg t="1537598491022" class="icon" style="" viewBox="0 0 1067 1024" version="1.1" xmlns="http://www.w3.org/2000/svg" p-id="33118" xmlns:xlink="http://www.w3.org/1999/xlink" width="208.3984375" height="200"><defs><style type="text/css"></style></defs><path d="M85.333333 374.29376C85.333333 433.61664 133.005568 481.10336 192.143147 481.10336L374.293632 481.10336C433.616469 481.10336 481.103445 433.43104 481.103445 374.29376L481.103445 192.14336C481.103445 132.82048 433.431253 85.333333 374.293632 85.333333L192.143147 85.333333C132.820309 85.333333 85.333333 133.005653 85.333333 192.14336L85.333333 374.29376ZM85.333333 874.523307C85.333333 933.846187 133.005568 981.333333 192.143147 981.333333L374.293632 981.333333C433.616469 981.333333 481.103445 933.661013 481.103445 874.523307L481.103445 692.372907C481.103445 633.050027 433.431253 585.563307 374.293632 585.563307L192.143147 585.563307C132.820309 585.563307 85.333333 633.235627 85.333333 692.372907L85.333333 874.523307ZM585.563221 374.29376C585.563221 433.61664 633.235413 481.10336 692.373035 481.10336L874.52352 481.10336C933.846357 481.10336 981.333333 433.43104 981.333333 374.29376L981.333333 192.14336C981.333333 132.82048 933.661099 85.333333 874.52352 85.333333L692.373035 85.333333C633.050197 85.333333 585.563221 133.005653 585.563221 192.14336L585.563221 374.29376ZM874.52352 585.563307 692.373035 585.563307C633.235413 585.563307 585.563221 633.050027 585.563221 692.372907L585.563221 874.523307C585.563221 933.661013 633.050197 981.333333 692.373035 981.333333L874.52352 981.333333C933.661099 981.333333 981.333333 933.846187 981.333333 874.523307L981.333333 692.372907C981.333333 633.235627 933.846357 585.563307 874.52352 585.563307Z" p-id="33119"></path></svg>