<svg width="1024" height="1024" xmlns="http://www.w3.org/2000/svg" class="icon">
 <defs>
  <style type="text/css"/>
 </defs>
 <g>
  <title>background</title>
  <rect fill="none" id="canvas_background" height="402" width="582" y="-1" x="-1"/>
 </g>
 <g>
  <title>Layer 1</title>
  <path stroke="null" id="svg_1" d="m818.461525,966.017067l-612.923058,0a136.205124,136.205124 0 0 1 -136.205124,-136.205124l0,-340.51281a90.803416,90.803416 0 0 1 90.803417,-90.803417l113.504269,0l0,-249.709393a90.803416,90.803416 0 0 1 90.803417,-90.803417l499.418787,0a90.803416,90.803416 0 0 1 90.803416,90.803417l0,681.02562a136.205124,136.205124 0 0 1 -136.205124,136.205124zm-544.820496,-476.717934a22.700854,22.700854 0 0 0 -22.700854,-22.700855l-90.803416,0a22.700854,22.700854 0 0 0 -22.700855,22.700855l0,340.51281a68.102562,68.102562 0 0 0 136.205124,0l0,-340.51281zm204.307686,-295.111102a45.401708,45.401708 0 1 0 45.401708,45.401708a45.401708,45.401708 0 0 0 -45.401708,-45.401708zm249.709394,45.401708c-69.873229,0.998838 -113.50427,181.606832 -113.50427,181.606832l-22.700854,0s-37.229401,-92.687587 -90.803416,-90.803417c-54.936067,1.929572 -90.803416,113.50427 -90.803417,113.50427l431.316226,0s-44.743383,-205.283822 -113.50427,-204.307686zm79.452989,317.811956l-272.410248,0a34.051281,34.051281 0 0 0 0,68.102562l272.410248,0a34.051281,34.051281 0 0 0 0,-68.102562zm0,158.905978l-385.914518,0a34.051281,34.051281 0 0 0 0,68.102562l385.914518,0a34.051281,34.051281 0 0 0 0,-68.102562z"/>
 </g>
</svg>