<svg width="1024" height="1024" xmlns="http://www.w3.org/2000/svg" class="icon">
 <defs>
  <style type="text/css"/>
 </defs>
 <g>
  <title>background</title>
  <rect fill="none" id="canvas_background" height="402" width="582" y="-1" x="-1"/>
 </g>
 <g>
  <title>Layer 1</title>
  <path stroke="null" id="svg_1" d="m470.178711,539.154414l-182.215587,0a210.457645,210.457645 0 0 0 -210.457645,209.371412a197.965965,197.965965 0 0 0 197.965965,197.965965a208.285179,208.285179 0 0 0 209.371412,-208.285179l0,-186.560519a13.577913,13.577913 0 0 0 -14.664146,-12.49168zm81.467475,-54.31165l174.340397,0a220.5053,220.5053 0 0 0 220.5053,-221.591533a185.745844,185.745844 0 0 0 -185.745844,-185.745844a222.677766,222.677766 0 0 0 -221.591533,222.677766l0,169.723907a13.577913,13.577913 0 0 0 12.49168,14.935704zm202.582456,54.31165l-202.582456,0a13.577913,13.577913 0 0 0 -13.577913,13.577913l0,202.582456a192.263242,192.263242 0 0 0 191.177009,191.177009a217.246601,217.246601 0 0 0 217.246601,-217.246601a192.263242,192.263242 0 0 0 -192.263242,-190.090776zm-459.476562,-461.649028a217.246601,217.246601 0 0 0 -217.246601,217.246601a190.090776,190.090776 0 0 0 190.090776,190.090776l202.854014,0a13.577913,13.577913 0 0 0 13.577913,-13.577913l0,-203.668689a190.090776,190.090776 0 0 0 -189.276101,-190.090776z"/>
 </g>
</svg>