<svg width="1024" height="1024" xmlns="http://www.w3.org/2000/svg" class="icon">
 <defs>
  <style type="text/css"/>
 </defs>
 <g>
  <title>background</title>
  <rect fill="none" id="canvas_background" height="402" width="582" y="-1" x="-1"/>
 </g>
 <g>
  <title>Layer 1</title>
  <path stroke="null" id="svg_1" d="m442.156245,65l139.687498,0c23.223047,0 41.906249,18.683203 41.906249,41.906249l0,293.343746l153.13242,0c31.080468,0 46.620703,37.541015 24.619922,59.541796l-265.580856,265.755466c-13.095703,13.095703 -34.572656,13.095703 -47.668359,0l-265.930075,-265.755466c-22.000781,-22.000781 -6.460547,-59.541796 24.619922,-59.541796l153.307029,0l0,-293.343746c0,-23.223047 18.683203,-41.906249 41.906249,-41.906249zm516.843744,656.531242l0,195.562498c0,23.223047 -18.683203,41.906249 -41.906249,41.906249l-810.18749,0c-23.223047,0 -41.906249,-18.683203 -41.906249,-41.906249l0,-195.562498c0,-23.223047 18.683203,-41.906249 41.906249,-41.906249l256.15195,0l85.558593,85.558593c35.096484,35.096484 91.669921,35.096484 126.766405,0l85.558593,-85.558593l256.15195,0c23.223047,0 41.906249,18.683203 41.906249,41.906249zm-216.515622,153.656248c0,-19.207031 -15.714844,-34.921875 -34.921875,-34.921875s-34.921875,15.714844 -34.921875,34.921875s15.714844,34.921875 34.921875,34.921875s34.921875,-15.714844 34.921875,-34.921875zm111.749999,0c0,-19.207031 -15.714844,-34.921875 -34.921875,-34.921875s-34.921875,15.714844 -34.921875,34.921875s15.714844,34.921875 34.921875,34.921875s34.921875,-15.714844 34.921875,-34.921875z"/>
 </g>
</svg>