<?xml version="1.0" standalone="no"?><!DOCTYPE svg PUBLIC "-//W3C//DTD SVG 1.1//EN" "http://www.w3.org/Graphics/SVG/1.1/DTD/svg11.dtd"><svg t="1537597004228" class="icon" style="" viewBox="0 0 1024 1024" version="1.1" xmlns="http://www.w3.org/2000/svg" p-id="15864" xmlns:xlink="http://www.w3.org/1999/xlink" width="200" height="200"><defs><style type="text/css"></style></defs><path d="M864.02048 330.95168c-16.25088 0-28.78464 12.99968-28.78464 28.78464 0 15.78496 13.4656 28.77952 29.24544 28.77952 15.79008 0 28.78464 12.99968 28.78464 28.78464l0 319.86176c0 16.25088-12.99456 28.77952-28.78464 28.77952l-29.24544 0c-16.25088 0-28.78464 13.0048-28.78464 28.78464l0 0.46592 0 45.0304-66.38592-65.92c-5.57056-5.57056-12.99456-8.36096-20.8896-8.36096 0 0 0 0-0.4608 0l-144.8448 0c-16.25088 0-28.78464 13.0048-28.78464 28.78464 0 15.78496 12.99968 28.78464 28.78464 28.78464l133.23264 0 106.77248 107.6992c5.57568 5.57568 12.99968 8.82176 20.42368 8.82176 3.72224 0 7.42912-0.92672 11.14624-2.31936 10.6752-4.64384 18.10432-14.85312 18.10432-26.92096l0.46592-87.28064 0.4608 0c47.8208 0 86.81472-38.99904 86.81472-87.28064L951.29088 416.83456C951.296 369.9456 912.30208 330.95168 864.02048 330.95168z" p-id="15865"></path><path d="M776.74496 620.63616 776.74496 243.21024c0-47.81568-38.99904-87.27552-87.28064-87.27552L167.65952 155.93472c-47.81568 0-87.27552 38.99904-87.27552 87.27552l0 376.96c0 47.8208 38.99392 87.28064 87.27552 87.28064l0.46592 0-0.46592 145.3056c0 12.06784 7.42912 22.74816 18.10432 26.92608 3.71712 1.39264 6.9632 1.85856 10.68032 1.85856 7.88992 0 15.78496-3.25632 21.3504-9.28256l154.12736-164.80256 317.5424 0C737.74592 707.45088 776.74496 668.45184 776.74496 620.63616zM531.72224 455.48032 456.08448 455.48032l0 75.63776c0 18.17088-14.24896 32.41472-32.41984 32.41472s-32.41472-14.73536-32.41472-32.41472L391.24992 455.98208 315.61728 455.98208c-18.17088 0-32.41472-14.24384-32.41472-32.42496 0-18.17088 14.73536-32.41472 32.41472-32.41472l75.63264 0L391.24992 315.50976c0-18.17088 14.24384-32.41472 32.41472-32.41472s32.41984 14.73536 32.41984 32.41472l0 75.63264 75.63264 0c17.67936 0 32.41472 13.75232 32.41472 31.9232C564.13696 441.2416 549.4016 455.48032 531.72224 455.48032z" p-id="15866"></path></svg>