<svg width="1026" height="1024" xmlns="http://www.w3.org/2000/svg" class="icon">
 <defs>
  <style type="text/css"/>
 </defs>
 <g>
  <title>background</title>
  <rect fill="none" id="canvas_background" height="402" width="582" y="-1" x="-1"/>
 </g>
 <g>
  <title>Layer 1</title>
  <path stroke="null" id="svg_1" d="m549.657627,829.388884c-30.227515,30.227515 -78.087748,30.227515 -108.315262,0c-30.227515,-30.227515 -30.227515,-78.087748 0,-108.315262l377.843938,-377.843939c30.227515,-30.227515 78.087748,-30.227515 108.315262,0c30.227515,30.227515 30.227515,78.087748 0,108.315262l-377.843938,377.843939zm120.91006,-506.310878l-554.171111,0c-42.822313,0 -75.568788,-32.746475 -75.568788,-75.568788s32.746475,-75.568788 75.568788,-75.568788l680.11909,0c12.594798,0 25.189596,5.037919 37.784394,12.594798c-25.189596,10.075839 -50.379192,25.189596 -70.530868,45.341273l-93.201505,93.201505zm-554.171111,75.568788l478.602323,0l-151.137576,151.137576l-327.464747,0c-42.822313,0 -75.568788,-32.746475 -75.568788,-75.568788s32.746475,-75.568788 75.568788,-75.568788zm0,226.706363l251.89596,0l-42.822313,42.822313c-30.227515,30.227515 -47.860232,65.49295 -55.417111,108.315262l-153.656535,0c-42.822313,0 -75.568788,-32.746475 -75.568788,-75.568788s32.746475,-75.568788 75.568788,-75.568788zm755.687879,75.568788c0,42.822313 -32.746475,75.568788 -75.568788,75.568788l-27.708556,0l100.758384,-98.239425c0,5.037919 2.518959,15.113758 2.51896,22.670636z"/>
 </g>
</svg>
