<svg width="1024" height="1024" xmlns="http://www.w3.org/2000/svg" class="icon">
 <defs>
  <style type="text/css"/>
 </defs>
 <g>
  <title>background</title>
  <rect fill="none" id="canvas_background" height="402" width="582" y="-1" x="-1"/>
 </g>
 <g>
  <title>Layer 1</title>
  <path stroke="null" id="svg_1" d="m848.035987,904.042l-653.388933,0c-61.864247,0 -112.011999,-50.147752 -112.011999,-112.011999l0,-37.337333l93.328939,0c20.61182,0 37.337333,-16.725513 37.337333,-37.337333l0,-112.011999c0,-20.61182 -16.725513,-37.337333 -37.337333,-37.337333l-93.328939,0l0,-112.011999l93.328939,0c20.61182,0 37.337333,-16.725513 37.337333,-37.337333l0,-112.011999c0,-20.61182 -16.725513,-37.337333 -37.337333,-37.337333l-93.328939,0l0,-37.337333c0,-61.864247 50.147752,-112.011999 112.011999,-112.011999l653.388933,0c61.864247,0 112.011999,50.147752 112.011999,112.011999l0,560.059995c0,61.864247 -50.147752,112.011999 -112.011999,112.011999zm-176.956504,-247.888801c-79.913983,-10.910447 -103.980298,-37.394908 -103.980298,-37.394908c-16.898238,-14.336154 -18.740635,-38.834281 -17.934586,-54.437083c38.229744,-20.813332 71.594408,-71.853495 71.594408,-140.19492c0,-88.751733 -58.265815,-117.308891 -108.989316,-117.308891l0,0.028787c-50.694713,0 -108.989316,28.528371 -108.989316,117.280104c0,68.341425 33.393451,119.381588 71.594408,140.19492c0.834836,15.602802 -1.007561,40.100929 -17.934586,54.437083c0,0 -24.037527,26.484461 -103.980298,37.394908c0,0 -30.946517,5.44083 -46.031145,61.49001l410.73945,0c-15.113415,-56.049181 -46.059933,-61.49001 -46.059933,-61.49001l-0.028787,0zm-515.15156,-349.537315c11.255896,0 20.410308,9.010474 20.410308,20.151221l0,71.56562c0,11.111959 -9.125624,20.151221 -20.410308,20.151221l-71.56562,0c-11.255896,0 -20.410308,-13.70283 -20.410308,-24.814789l0,-66.902052c0,-11.140746 9.154412,-20.151221 20.410308,-20.151221l71.56562,0zm-71.56562,298.698664l71.56562,0c11.255896,0 20.410308,9.039262 20.410308,20.151221l0,71.56562c0,11.111959 -9.125624,20.151221 -20.410308,20.151221l-71.56562,0c-11.255896,0 -20.410308,-13.70283 -20.410308,-24.814789l0,-66.873265c0,-11.140746 9.154412,-20.151221 20.410308,-20.151221l0,-0.028787z"/>
 </g>
</svg>