<svg width="1024" height="1024" xmlns="http://www.w3.org/2000/svg" class="icon">
 <defs>
  <style type="text/css"/>
 </defs>
 <g>
  <title>background</title>
  <rect fill="none" id="canvas_background" height="402" width="582" y="-1" x="-1"/>
 </g>
 <g>
  <title>Layer 1</title>
  <g stroke="null" id="svg_4">
   <path stroke="null" id="svg_1" d="m911.086303,474.28713l-105.105962,0c-27.416253,0 -49.653189,22.236936 -49.653189,49.746223l0,5.396412c0,27.509295 22.236936,49.746232 49.684201,49.746232l105.074951,0c27.447264,0 49.746232,-22.298967 49.746232,-49.746232l-0.062031,-5.458435a49.622169,49.622169 0 0 0 -49.684201,-49.684201z"/>
   <path stroke="null" id="svg_2" d="m911.148334,350.231693l-21.926799,0l0,-240.543479a63.051169,63.051169 0 0 0 -62.865085,-62.865094l-414.748328,0a63.051169,63.051169 0 0 0 -62.865094,62.865094l0,172.59212c-83.675386,47.296132 -169.955945,96.701206 -170.142029,96.825259c-46.830921,19.259612 -115.464587,81.473411 -115.464587,228.355039a354.271303,354.271303 0 0 0 3.349493,46.954983c1.20954,8.590841 2.729217,16.809513 4.528021,24.625005c0.651296,2.760237 1.147518,5.675539 1.860835,8.342725c2.41908,9.056052 5.241339,17.52283 8.404756,25.555427c1.581709,4.000779 3.318482,7.660419 5.055255,11.413091c1.860835,3.938766 3.721662,7.784481 5.73757,11.44412c2.326037,4.341937 4.652075,8.559821 7.195208,12.560609l1.891846,2.729217c60.508036,91.428856 172.095898,91.863056 172.095898,91.863056l75.487734,0l0,71.424915c0,34.518419 28.284644,62.803063 62.865094,62.803063l414.748328,0a63.020158,63.020158 0 0 0 62.865085,-62.803063l0,-87.11793l9.583285,0l0,-0.062031l12.250471,0c27.509295,0 49.777243,-22.236936 49.746232,-49.746223l0.062022,-5.396412a49.777243,49.777243 0 0 0 -49.777243,-49.653189l-105.105962,0a49.622169,49.622169 0 0 0 -49.653189,49.684201l0,5.520466c0,27.385242 22.236936,49.684201 49.684201,49.684201l39.480649,0l0,33.650037l-453.019428,0l0,-451.344677c22.764169,-14.421444 43.822577,-28.315655 55.855953,-37.619814c60.880205,-47.079037 118.659025,-84.574788 126.474517,-118.596993c10.172549,-44.101704 -23.694592,-81.287317 -82.434835,-50.769687c-18.515275,9.614296 -56.507248,30.672704 -99.895634,55.049602l0,-111.215692l453.019428,0.062022l0,203.699024l-27.137127,0l0,0.062022l-12.312502,0c-27.447264,0 -49.746232,22.236936 -49.746232,49.746232l0,5.396412c0,27.509295 22.298967,49.684201 49.684201,49.684201l105.136982,0c27.447264,0 49.684201,-22.236936 49.684201,-49.684201l0,-5.520466a49.653189,49.653189 0 0 0 -49.653189,-49.653189zm-292.212569,532.756057a31.417041,31.417041 0 1 1 0.093042,62.803063a31.417041,31.417041 0 0 1 -0.093042,-62.803063zm66.400671,-775.656594l-132.7083,0a7.598397,7.598397 0 1 1 0,-15.196793l132.7083,0c4.186864,0 7.567376,3.380513 7.567376,7.629417a7.567385,7.567385 0 0 1 -7.567376,7.567376z"/>
   <path stroke="null" id="svg_3" d="m911.086303,598.342558l-105.105962,0c-27.385233,0 -49.684201,22.298967 -49.684201,49.746232l0,5.458435c0,27.447264 22.236936,49.684201 49.684201,49.684201l105.074951,0c27.509295,0 49.684201,-22.236936 49.746232,-49.684201l-0.03102,-5.458435c0,-27.447264 -22.174905,-49.746232 -49.684201,-49.746232z"/>
  </g>
 </g>
</svg>