<svg width="1024" height="1024" xmlns="http://www.w3.org/2000/svg" class="icon">
 <defs>
  <style type="text/css"/>
 </defs>
 <g>
  <title>background</title>
  <rect fill="none" id="canvas_background" height="402" width="582" y="-1" x="-1"/>
 </g>
 <g>
  <title>Layer 1</title>
  <path stroke="null" id="svg_1" d="m869.360309,601.340065l-111.676182,0l-111.672927,-192.078997c26.799853,-13.398842 44.670039,-44.665699 44.670039,-75.934726l0,-178.677986c0,-49.141383 -40.20629,-89.341163 -89.340078,-89.341163l-178.676901,0c-49.133788,0 -89.335738,40.20195 -89.335738,89.341163l0,178.676901c0,31.269027 17.866931,58.067796 44.665699,75.934726l-111.672927,192.080082l-111.671842,0c-49.141383,0 -89.341163,40.20195 -89.341163,89.340078l0,178.676901c0,49.133788 40.20195,89.335738 89.341163,89.335738l178.676901,0c49.132703,0 89.335738,-40.20195 89.335738,-89.335738l0,-58.072136l178.676901,0l0,58.072136c0,49.133788 40.20195,89.335738 89.340078,89.335738l178.676901,0c49.133788,0 89.335738,-40.20195 89.335738,-89.335738l0,-178.676901c0,-49.139213 -40.20195,-89.340078 -89.335738,-89.340078l0,0l0.00434,0zm-446.696049,142.944124l0,-53.605132c0,-44.670039 -35.738201,-84.871989 -80.402815,-89.340078l102.737834,-178.676901l129.543113,0l102.737834,178.676901c-44.670039,4.467004 -80.40173,40.20195 -80.40173,89.340078l0,53.605132l-174.213152,0l-0.001085,0zm0,0z"/>
 </g>
</svg>