<svg width="1024" height="1024" xmlns="http://www.w3.org/2000/svg" class="icon">
 <defs>
  <style type="text/css"/>
 </defs>
 <g>
  <title>background</title>
  <rect fill="none" id="canvas_background" height="402" width="582" y="-1" x="-1"/>
 </g>
 <g>
  <title>Layer 1</title>
  <path stroke="null" id="svg_1" d="m765.049718,369.184337l-108.449886,0l0,-38.910733c0,-65.601582 -18.686753,-175.366312 -144.599847,-175.366312c-130.733089,0 -144.599847,122.520594 -144.599847,175.366312l0,38.910733l-108.449886,0l0,-38.910733c0,-171.864696 99.403122,-282.77281 253.049733,-282.77281s253.049733,110.908115 253.049733,282.77281l0,38.910733zm-180.749809,285.631267c0,-39.48243 -32.553502,-71.354223 -72.299924,-71.354223s-72.299924,31.871792 -72.299924,71.354223c0,26.726566 14.497057,49.415564 36.187044,61.528278l0,81.323083c0,19.723352 16.239674,36.016549 36.149962,36.016549s36.149962,-16.293198 36.149962,-36.016549l0,-81.323083c21.652895,-12.112714 36.11288,-34.801712 36.11288,-61.528278zm289.199695,-142.815634l0,357.092679c0,59.205773 -48.830258,107.406499 -108.449886,107.406499l-506.099466,0c-59.582555,0 -108.449886,-48.200726 -108.449886,-107.406499l0,-357.092679c0,-59.170046 48.830258,-107.406499 108.449886,-107.406499l506.099466,0c59.619628,0 108.449886,48.236452 108.449886,107.406499z"/>
 </g>
</svg>